<svg width="70" height="70" viewBox="0 0 70 70" fill="none" xmlns="http://www.w3.org/2000/svg">
    <circle cx="35" cy="35" r="35" fill="#D9D9D9"/>
    <g clip-path="url(#clip0_20_5)">
        <path d="M43.1275 15.17C43.3722 15.3119 43.5615 15.5325 43.6646 15.7958C43.7677 16.0592 43.7784 16.3498 43.695 16.62L39.1925 31.25H47.5C47.7441 31.2499 47.983 31.3213 48.187 31.4554C48.391 31.5895 48.5513 31.7803 48.6481 32.0045C48.7449 32.2286 48.7739 32.4762 48.7316 32.7166C48.6893 32.9571 48.5775 33.1799 48.41 33.3575L28.41 54.6075C28.2165 54.8133 27.959 54.9475 27.6794 54.9881C27.3999 55.0288 27.1148 54.9736 26.8707 54.8316C26.6265 54.6895 26.4377 54.4689 26.335 54.2057C26.2322 53.9426 26.2217 53.6524 26.305 53.3825L30.8075 38.75H22.5C22.2559 38.7501 22.017 38.6787 21.813 38.5446C21.609 38.4105 21.4487 38.2197 21.3519 37.9955C21.2551 37.7714 21.2261 37.5238 21.2684 37.2834C21.3107 37.0429 21.4225 36.8201 21.59 36.6425L41.59 15.3925C41.7833 15.187 42.0404 15.0529 42.3195 15.0121C42.5987 14.9712 42.8834 15.026 43.1275 15.1675V15.17ZM25.3925 36.25H32.5C32.6956 36.25 32.8885 36.2958 33.0632 36.3839C33.2378 36.472 33.3894 36.5999 33.5056 36.7572C33.6219 36.9146 33.6996 37.097 33.7324 37.2898C33.7653 37.4827 33.7525 37.6805 33.695 37.8675L30.275 48.975L44.605 33.75H37.5C37.3044 33.75 37.1115 33.7042 36.9368 33.6161C36.7622 33.528 36.6106 33.4001 36.4944 33.2428C36.3781 33.0854 36.3004 32.903 36.2675 32.7102C36.2347 32.5173 36.2475 32.3195 36.305 32.1325L39.725 21.025L25.3925 36.25Z" fill="black"/>
    </g>
    <defs>
        <clipPath id="clip0_20_5">
            <rect width="40" height="40" fill="white" transform="translate(15 15)"/>
        </clipPath>
    </defs>
</svg>
